HIERARCHY
ROOT Hips
{
	OFFSET	0.00	0.00	0.00
	CHANNELS 6 Xposition Yposition Zposition Zrotation Xrotation Yrotation
	JOINT LeftUpperLeg
	{
		OFFSET	 0.100000	-0.066564	-0.000554
		CHANNELS 3 Zrotation Xrotation Yrotation
		JOINT LeftLowerLeg
		{
			OFFSET	 0.002447	-0.463436	-0.005172
			CHANNELS 3 Zrotation Xrotation Yrotation
			JOINT LeftFoot
			{
				OFFSET	-0.002447	-0.420480	-0.020576
				CHANNELS 3 Zrotation Xrotation Yrotation
				JOINT LeftToes
				{
					OFFSET	 0.003734	-0.104922	 0.126407
					CHANNELS 3 Zrotation Xrotation Yrotation
					End Site
					{
						OFFSET	 0.000000	 0.000000	 0.059955
					}
				}
			}
		}
	}
	JOINT RightUpperLeg
	{
		OFFSET	-0.100000	-0.066564	-0.000554
		CHANNELS 3 Zrotation Xrotation Yrotation
		JOINT RightLowerLeg
		{
			OFFSET	-0.002447	-0.463436	-0.005146
			CHANNELS 3 Zrotation Xrotation Yrotation
			JOINT RightFoot
			{
				OFFSET	 0.002447	-0.420479	-0.020602
				CHANNELS 3 Zrotation Xrotation Yrotation
				JOINT RightToes
				{
					OFFSET	-0.003734	-0.104922	 0.126407
					CHANNELS 3 Zrotation Xrotation Yrotation
					End Site
					{
						OFFSET	-0.000000	 0.000000	 0.059955
					}
				}
			}
		}
	}
	JOINT Spine
	{
		OFFSET	 0.000000	 0.099235	-0.012273
		CHANNELS 3 Zrotation Xrotation Yrotation
		JOINT Chest
		{
			OFFSET	-0.000001	 0.116455	-0.014223
			CHANNELS 3 Zrotation Xrotation Yrotation
			JOINT UpperChest
			{
				OFFSET	 0.000001	 0.133602	-0.016265
				CHANNELS 3 Zrotation Xrotation Yrotation
				JOINT LeftShoulder
				{
					OFFSET	 0.061058	 0.091105	 0.007056
					CHANNELS 3 Zrotation Xrotation Yrotation
					JOINT LeftUpperArm
					{
						OFFSET	 0.133942	-0.002659	-0.026009
						CHANNELS 3 Zrotation Xrotation Yrotation
						JOINT LeftLowerArm
						{
							OFFSET	 0.274047	 0.000000	 0.000000
							CHANNELS 3 Zrotation Xrotation Yrotation
							JOINT LeftHand
							{
								OFFSET	 0.276145	 0.000000	 0.000000
								CHANNELS 3 Zrotation Xrotation Yrotation
								End Site
								{
									OFFSET	 0.165687	 0.000000	 0.000000
								}
							}
						}
					}
				}
				JOINT Neck
				{
					OFFSET	 0.000000	 0.150325	 0.007929
					CHANNELS 3 Zrotation Xrotation Yrotation
					JOINT Head
					{
						OFFSET	 0.000000	 0.103218	 0.031424
						CHANNELS 3 Zrotation Xrotation Yrotation
						End Site
						{
							OFFSET	 0.000000	 0.061931	 0.018855
						}
					}
				}
				JOINT RightShoulder
				{
					OFFSET	-0.061057	 0.091105	 0.007056
					CHANNELS 3 Zrotation Xrotation Yrotation
					JOINT RightUpperArm
					{
						OFFSET	-0.133943	-0.002660	-0.026009
						CHANNELS 3 Zrotation Xrotation Yrotation
						JOINT RightLowerArm
						{
							OFFSET	-0.274047	 0.000000	 0.000000
							CHANNELS 3 Zrotation Xrotation Yrotation
							JOINT RightHand
							{
								OFFSET	-0.276145	 0.000000	 0.000000
								CHANNELS 3 Zrotation Xrotation Yrotation
								End Site
								{
									OFFSET	-0.165687	 0.000000	 0.000000
								}
							}
						}
					}
				}
			}
		}
	}
}
MOTION
Frames:    15
Frame Time: 0.03333334
-0.183800	 1.059260	 0.508670	-8.505985	 15.977170	 1.688985	 3.807428	-26.329590	 5.324731	-0.184751	 16.359790	 0.017024	 7.439911	-5.998363	 14.914650	 0.000311	 0.360777	 0.323135	 3.648153	-16.815420	-17.031680	-0.000554	 0.089932	 0.000935	 1.429418	 6.807515	 0.036431	-0.000564	-2.454920	-0.000575	 0.529862	 3.426805	-1.391985	-0.000000	 0.000000	 0.000000	 1.150652	 6.852399	-2.830166	 5.023060	-2.366650	 6.603078	-68.284870	-0.701752	-50.312800	-5.067225	-3.763296	-28.875290	 31.512880	 35.452700	-72.268280	 21.580740	-9.178523	 15.423280	 21.635170	-8.927826	 15.364730	-5.228829	-1.972217	-12.692090	 83.981290	 15.923300	 40.062470	-7.097229	 15.908280	 72.127000	-47.521710	 21.855970	 26.045660
-0.185660	 1.062250	 0.504060	-8.456075	 15.903150	 1.173962	 4.196132	-24.913480	 7.611115	-0.051412	 13.331770	-0.003287	 6.786133	-4.650527	 12.833160	-0.000352	 0.359276	 0.242983	 3.788012	-18.229810	-17.626500	-0.026200	 2.155985	 0.001941	 0.223870	 7.621236	 0.031794	-0.000329	-3.805279	-0.000105	 0.487316	 3.290724	-1.409101	-0.000000	 0.000000	 0.000000	 1.059583	 6.583009	-2.860380	 4.601081	-2.112232	 7.079265	-68.298420	-1.125363	-47.845560	-6.218169	-3.084423	-33.975620	 28.218600	 34.295740	-68.403160	 21.309340	-8.728664	 14.967280	 21.377590	-8.460002	 14.905340	-4.947130	-1.500675	-13.069470	 85.251240	 14.855040	 37.130680	-4.864725	 16.846850	 76.410210	-49.307980	 20.990500	 26.282600
-0.185660	 1.062250	 0.504060	-8.456075	 15.903150	 1.173962	 4.196132	-24.913480	 7.611115	-0.051412	 13.331770	-0.003287	 6.786133	-4.650527	 12.833160	-0.000352	 0.359276	 0.242983	 3.788012	-18.229810	-17.626500	-0.026200	 2.155985	 0.001941	 0.223870	 7.621236	 0.031794	-0.000329	-3.805279	-0.000105	 0.487316	 3.290724	-1.409101	-0.000000	 0.000000	 0.000000	 1.059583	 6.583009	-2.860380	 4.601081	-2.112232	 7.079265	-68.298420	-1.125363	-47.845560	-6.218169	-3.084423	-33.975620	 28.218600	 34.295740	-68.403160	 21.309340	-8.728664	 14.967280	 21.377590	-8.460002	 14.905340	-4.947130	-1.500675	-13.069470	 85.251240	 14.855040	 37.130680	-4.864725	 16.846850	 76.410210	-49.307980	 20.990500	 26.282600
-0.188420	 1.065670	 0.497450	-8.397112	 15.832330	 0.629104	 4.346467	-22.711430	 9.050013	-0.058283	 8.453498	-0.002528	 6.032155	-2.155150	 11.640510	 0.000231	 0.357211	 0.144715	 3.433250	-21.800190	-17.534160	-0.046192	 8.148144	 0.009217	-1.573434	 7.748534	-1.091396	 0.000036	-5.851317	 0.000263	 0.516057	 3.079865	-1.501358	-0.000000	 0.000000	 0.000000	 1.116794	 6.156978	-3.041941	 4.084794	-1.485322	 7.858444	-68.641070	-1.541530	-43.188510	-7.901988	-1.431794	-43.667030	 23.147990	 32.830210	-63.447440	 21.244320	-7.729730	 13.947790	 21.166720	-7.272522	 13.958000	-5.120812	-0.543662	-14.023080	 87.353360	 13.513020	 33.383660	-1.413133	 18.716170	 80.858270	-51.270050	 19.738980	 25.433880
-0.191750	 1.068060	 0.489800	-8.193657	 15.710900	-0.023857	 4.121813	-20.053230	 9.851088	-0.015813	 2.595200	-0.001493	 5.614882	 1.006437	 11.072730	 0.000461	 0.355868	 0.104047	 3.008267	-25.190100	-17.775790	-0.106359	 13.628950	 0.022216	-3.427836	 8.521986	-1.566485	 0.000365	-7.581687	-0.000034	 0.522447	 2.886228	-1.557591	-0.000000	 0.000000	 0.000000	 1.126701	 5.769272	-3.152282	 3.192427	-0.184037	 8.988455	-70.593570	-4.263412	-39.572980	-9.741470	 3.559051	-52.252420	 18.244930	 32.506180	-58.041400	 20.597820	-7.079470	 13.540590	 20.563440	-6.677137	 13.507020	-4.745390	-0.027740	-14.869870	 88.140270	 11.768510	 29.222700	 1.555241	 21.096760	 83.479450	-52.400880	 16.582540	 23.596910
-0.194520	 1.069240	 0.483010	-7.778791	 15.627360	-0.777735	 3.900921	-19.083860	 10.321510	-0.001050	 0.151395	 0.000253	 5.574374	 2.576253	 10.930400	 0.000788	 0.355875	 0.116067	 2.518237	-27.916510	-17.684280	-0.160013	 17.830460	 0.035910	-4.866506	 9.401403	-1.894189	 0.000337	-8.592709	 0.000433	 0.426224	 2.749424	-1.512007	-0.000000	 0.000000	 0.000000	 0.927948	 5.498633	-3.056310	 2.330181	 0.608784	 10.097230	-71.578860	-6.203733	-36.709640	-11.651290	 7.366951	-57.565340	 15.334820	 32.593560	-53.836580	 20.017250	-6.614187	 13.296810	 20.181720	-6.375896	 13.126470	-4.517060	 0.096867	-15.591640	 88.208680	 10.500440	 25.839010	 4.841754	 23.275360	 83.613710	-52.483760	 11.708120	 21.907840
-0.198250	 1.069610	 0.473230	-7.230915	 15.464970	-1.715727	 3.934121	-19.349740	 11.359550	-0.001279	 0.083131	-0.000997	 5.075058	 2.964490	 10.730130	-0.000203	 0.373401	-0.000379	 1.046749	-24.773850	-16.603900	-0.056810	 23.770060	 0.017939	-3.974525	 4.558282	-2.871370	 0.000286	-11.649320	-0.000014	 0.395674	 2.511996	-1.439041	-0.000000	 0.000000	 0.000000	 0.857888	 5.023043	-2.904936	 1.470188	 1.147080	 11.369400	-71.473870	-7.457620	-32.308650	-14.832150	 10.200710	-63.583050	 10.507500	 33.245520	-46.803780	 19.561320	-6.330552	 12.884470	 19.573110	-5.928975	 12.587170	-4.343350	 0.087252	-16.314390	 88.183350	 8.786030	 21.181970	 9.283510	 25.461590	 82.637760	-51.254220	 7.046129	 19.972920
-0.206930	 1.068310	 0.453500	-6.628958	 14.750990	-2.680828	 4.271651	-19.712280	 12.035370	-0.000758	 0.092867	-0.001052	 4.231317	 3.882292	 10.947430	 0.000146	 0.600256	 0.000325	-2.259249	-11.247090	-14.947730	-0.136965	 30.919200	 0.037568	-0.093766	-6.984870	-1.197317	 0.000489	 1.116727	-0.000934	 0.505029	 2.283551	-1.415632	-0.000000	 0.000000	 0.000000	 1.068376	 4.562456	-2.862976	 0.837614	 2.896408	 12.678240	-72.028490	-8.105979	-24.020490	-20.488800	 13.366250	-69.816380	 2.153992	 33.788850	-33.715890	 18.712760	-5.342411	 11.835360	 18.590930	-5.150969	 11.749750	-4.218131	 0.679062	-17.079320	 87.757340	 5.794444	 13.432030	 15.008230	 27.494250	 78.032870	-49.483620	-1.106396	 18.571650
-0.206930	 1.068310	 0.453500	-6.628958	 14.750990	-2.680828	 4.271651	-19.712280	 12.035370	-0.000758	 0.092867	-0.001052	 4.231317	 3.882292	 10.947430	 0.000146	 0.600256	 0.000325	-2.259249	-11.247090	-14.947730	-0.136965	 30.919200	 0.037568	-0.093766	-6.984870	-1.197317	 0.000489	 1.116727	-0.000934	 0.505029	 2.283551	-1.415632	-0.000000	 0.000000	 0.000000	 1.068376	 4.562456	-2.862976	 0.837614	 2.896408	 12.678240	-72.028490	-8.105979	-24.020490	-20.488800	 13.366250	-69.816380	 2.153992	 33.788850	-33.715890	 18.712760	-5.342411	 11.835360	 18.590930	-5.150969	 11.749750	-4.218131	 0.679062	-17.079320	 87.757340	 5.794444	 13.432030	 15.008230	 27.494250	 78.032870	-49.483620	-1.106396	 18.571650
-0.210890	 1.067420	 0.444030	-6.304168	 14.387170	-2.844370	 4.252308	-19.927650	 11.647420	-0.000923	 0.083879	 0.000129	 4.104101	 4.533173	 11.360650	 0.000102	 0.621566	 0.000026	-3.015343	-12.629680	-14.420690	-0.274685	 36.011940	 0.089247	 1.243044	-10.538140	 0.536334	 0.000063	 1.164622	 0.000077	 0.533354	 2.238560	-1.452153	-0.000000	 0.000000	 0.000000	 1.125496	 4.470051	-2.933340	 0.620683	 3.447938	 13.154230	-72.765860	-8.513211	-20.651150	-23.072350	 15.018080	-70.570300	-0.574668	 33.922150	-29.460330	 18.287910	-5.105000	 11.439380	 18.228850	-4.998498	 11.475240	-4.173866	 0.843315	-17.296030	 87.256930	 4.823375	 10.486440	 15.788410	 27.688690	 76.987330	-49.414920	-1.969551	 18.377470
-0.216720	 1.065740	 0.430230	-5.758788	 13.834690	-2.932747	 4.101153	-20.271710	 11.589650	-0.000401	 0.092035	 0.000099	 3.909009	 5.593169	 11.159210	-0.000715	 0.499013	-0.000169	-3.308162	-14.556970	-12.589740	-0.362113	 41.157890	 0.135596	 1.921081	-13.094530	 2.673586	 0.000068	 1.269095	-0.000131	 0.547114	 2.199993	-1.479494	-0.000000	 0.000000	 0.000000	 1.152755	 4.392061	-2.986958	 0.342099	 3.769723	 13.837980	-73.615590	-8.847084	-16.384170	-26.479100	 16.180030	-70.815850	-5.014297	 34.996040	-23.236750	 17.881220	-4.932309	 11.109420	 17.852480	-4.843503	 11.134340	-4.406877	 1.462203	-17.677380	 87.172040	 3.460283	 6.965294	 15.899070	 28.095310	 76.393410	-47.850180	-2.891909	 16.326730
-0.221650	 1.064000	 0.418770	-5.228590	 13.345300	-2.953682	 3.911336	-20.510130	 11.597540	-0.001108	 0.082258	-0.000217	 3.389102	 6.296192	 11.099830	-0.000050	 0.498877	 0.000343	-2.888555	-15.241570	-10.492720	-0.121608	 41.929940	 0.047398	 1.456717	-12.853960	 2.945246	-0.000041	 1.319087	 0.000207	 0.509707	 2.184128	-1.494068	-0.000000	 0.000000	 0.000000	 1.080197	 4.361253	-3.015275	 0.122517	 3.926899	 14.276320	-74.201840	-9.242894	-13.343950	-28.770990	 17.099450	-70.209730	-8.743530	 35.349320	-17.499850	 17.265330	-4.942586	 10.766270	 17.338430	-4.899228	 10.788060	-4.931499	 2.455326	-18.173440	 87.043070	 2.855943	 6.221778	 17.896950	 28.060280	 74.181530	-47.158370	-3.802039	 14.291700
-0.228610	 1.061080	 0.401740	-4.304393	 12.600870	-3.057657	 3.465324	-20.855460	 11.409680	-0.001221	 0.082361	-0.000520	 2.842565	 7.317535	 11.188970	-0.000519	 0.557228	-0.000055	-2.568749	-15.269350	-8.681189	-0.237114	 41.482580	 0.090013	-0.075489	-11.715520	 3.474862	-0.000784	 1.369765	-0.000106	 0.383615	 2.182038	-1.487801	-0.000000	 0.000000	 0.000000	 0.825453	 4.359747	-2.997803	-0.130779	 3.956537	 14.737480	-75.120350	-9.844690	-9.577246	-31.377040	 18.646560	-68.060070	-13.501080	 35.943220	-9.765371	 16.430220	-4.931847	 10.370650	 16.684530	-4.916053	 10.368250	-5.222722	 2.776910	-18.596620	 86.749200	 1.898638	 4.302114	 19.223230	 28.607360	 72.368610	-45.306520	-4.785322	 11.533240
-0.235520	 1.057910	 0.382460	-3.062478	 11.773820	-3.342483	 2.756829	-21.255820	 11.466860	-0.000695	 0.078323	-0.000098	 2.296339	 8.542596	 11.106410	-0.000104	 0.530719	 0.000191	-2.296092	-14.763320	-6.354074	-0.122424	 40.520920	 0.044603	 2.209512	-15.805260	 1.881683	-0.000074	 1.015633	-0.000697	 0.150712	 2.266990	-1.450916	-0.000000	 0.000000	 0.000000	 0.360195	 4.537747	-2.915831	-0.444548	 4.046610	 14.936950	-75.700270	-10.400380	-6.557724	-33.239470	 19.835190	-65.342510	-17.351370	 35.821230	-3.088554	 15.710110	-4.726273	 10.124510	 16.181390	-4.886705	 10.122490	-5.464498	 2.892813	-18.799380	 86.766670	 1.351223	 2.192647	 19.939950	 28.774170	 71.329120	-42.114620	-5.585121	 9.855083
-0.240890	 1.055590	 0.366860	-2.232042	 10.883280	-3.639251	 2.415276	-21.312960	 11.630150	-0.000449	 0.083150	-0.000176	 1.271168	 9.232226	 11.230040	 0.000123	 0.667859	-0.000335	-1.857660	-14.052260	-4.901589	-0.188042	 39.275340	 0.067062	 2.956934	-17.965510	 0.128883	-0.000455	 0.821101	 0.000180	 0.076840	 2.445226	-1.380110	-0.000000	 0.000000	 0.000000	 0.214830	 4.897274	-2.772839	-0.403872	 4.149255	 14.985630	-75.454060	-10.257240	-4.636159	-34.363670	 19.975730	-63.772130	-20.383730	 35.652390	 1.971482	 15.635000	-4.548599	 10.124140	 15.796220	-4.922211	 10.094200	-5.125571	 2.866176	-18.887230	 85.879910	 1.685997	 1.954244	 21.183890	 29.142310	 70.162610	-42.325310	-6.389761	 8.626432
